D:\school\WTK\thesis\model\3dpredictsim\Results\debug_batch\Pog_s1_tmt_bCst_d00_k500_ig24_pas_GRF.mot
nRows=30
nColumns=19

name D:\school\WTK\thesis\model\3dpredictsim\Results\debug_batch\Pog_s1_tmt_bCst_d00_k500_ig24_pas_GRF.mot
datacolumns 19
datarows 30
range 0.0000000000 0.3277071208
endheader
time 	ground_force_vx	ground_force_vy	ground_force_vz	ground_force_px	ground_force_py	ground_force_pz	1_ground_force_vx	1_ground_force_vy	1_ground_force_vz	1_ground_force_px	1_ground_force_py	1_ground_force_pz	ground_torque_x	ground_torque_y	ground_torque_z	1_ground_torque_x	1_ground_torque_y	1_ground_torque_z
        0.0000000000	      -66.0176209611	       57.9153758430	       31.4071232367	        0.1728273999	        0.0000000000	        0.0376113025	       96.9744848524	      460.0672313264	       -3.3974453950	       -0.3247899257	        0.0000000000	       -0.0288322741	        0.0000000000	        0.0000000000	        0.0000000000	        0.0000000000	        0.0000000000	        0.0000000000	
        0.0113002455	     -110.9040759480	      137.8162906893	       83.3071410674	        0.1796063990	        0.0000000000	        0.0349864956	       75.7635067341	      373.7987945189	      -10.3531046835	       -0.3201322584	        0.0000000000	       -0.0271624764	        0.0000000000	        0.0000000000	        0.0000000000	        0.0000000000	        0.0000000000	        0.0000000000	
        0.0226004911	      -51.4436496917	      294.3226095355	       35.6224009504	        0.1851491451	        0.0000000000	        0.0322026299	       47.3781275872	      269.7882380483	      -11.5085201970	       -0.3119003998	        0.0000000000	       -0.0233979408	        0.0000000000	        0.0000000000	        0.0000000000	        0.0000000000	        0.0000000000	        0.0000000000	
        0.0339007366	      -55.9526696941	      486.7548450851	        3.9462272742	        0.1898725407	        0.0000000000	        0.0324349889	       19.5831478185	      169.6170437069	       -8.2490950196	       -0.2966739541	        0.0000000000	       -0.0152063571	        0.0000000000	        0.0000000000	        0.0000000000	        0.0000000000	        0.0000000000	        0.0000000000	
        0.0452009822	      -93.6146561171	      720.3559415918	       -9.5957796254	        0.1989317635	        0.0000000000	        0.0349351317	        1.8749727897	      126.6257018739	       -9.3866819898	       -0.2913554955	        0.0000000000	       -0.0119584793	        0.0000000000	        0.0000000000	        0.0000000000	        0.0000000000	        0.0000000000	        0.0000000000	
        0.0565012277	     -118.2258419092	      866.1287832962	      -14.5400909577	        0.2050160827	        0.0000000000	        0.0365663300	       -1.5507020134	       84.4145058390	       -8.5145983310	       -0.2908492218	        0.0000000000	       -0.0120068577	        0.0000000000	        0.0000000000	        0.0000000000	        0.0000000000	        0.0000000000	        0.0000000000	
        0.0678014733	     -125.0800433238	      909.9853893238	      -14.9584459448	        0.2089665200	        0.0000000000	        0.0374817795	       -7.7563618329	       35.4014001189	       -5.5811932386	       -0.2910821311	        0.0000000000	       -0.0120858067	        0.0000000000	        0.0000000000	        0.0000000000	        0.0000000000	        0.0000000000	        0.0000000000	
        0.0791017188	     -119.0531544607	      894.5898036935	      -14.7748383369	        0.2121999038	        0.0000000000	        0.0379638604	        0.0806975517	       -0.0812116832	        0.0014962644	        0.0000000000	        0.0000000000	        0.0000000000	        0.0000000000	        0.0000000000	        0.0000000000	        0.0000000000	        0.0000000000	        0.0000000000	
        0.0904019644	     -106.8336443023	      855.2835848302	      -15.2495611316	        0.2155356837	        0.0000000000	        0.0381378910	        0.0000476500	       -0.0000394261	       -0.0000030123	        0.0000000000	        0.0000000000	        0.0000000000	        0.0000000000	        0.0000000000	        0.0000000000	        0.0000000000	        0.0000000000	        0.0000000000	
        0.1017022099	      -92.4132381813	      805.1818245672	      -15.0075861278	        0.2189499233	        0.0000000000	        0.0381798537	        0.0000234434	       -0.0000169471	       -0.0000018659	        0.0000000000	        0.0000000000	        0.0000000000	        0.0000000000	        0.0000000000	        0.0000000000	        0.0000000000	        0.0000000000	        0.0000000000	
        0.1130024555	      -80.4800589612	      760.0642988496	      -14.9258553729	        0.2229096313	        0.0000000000	        0.0380989093	        0.0002620906	       -0.0001697316	       -0.0000229279	        0.0000000000	        0.0000000000	        0.0000000000	        0.0000000000	        0.0000000000	        0.0000000000	        0.0000000000	        0.0000000000	        0.0000000000	
        0.1243027010	      -69.5868892491	      721.7985694983	      -15.2449342651	        0.2271750362	        0.0000000000	        0.0379282992	        0.0053720187	       -0.0031865213	       -0.0004937883	        0.0000000000	        0.0000000000	        0.0000000000	        0.0000000000	        0.0000000000	        0.0000000000	        0.0000000000	        0.0000000000	        0.0000000000	
        0.1356029465	      -59.3106225110	      687.5023980222	      -16.0843997806	        0.2313674995	        0.0000000000	        0.0377799179	       -0.0240762493	        0.0132837398	        0.0023072541	        0.0000000000	        0.0000000000	        0.0000000000	        0.0000000000	        0.0000000000	        0.0000000000	        0.0000000000	        0.0000000000	        0.0000000000	
        0.1469031921	      -49.7293111686	      657.6041214235	      -17.1438578593	        0.2355440988	        0.0000000000	        0.0376859137	       -0.0163450643	        0.0084897123	        0.0016335386	        0.0000000000	        0.0000000000	        0.0000000000	        0.0000000000	        0.0000000000	        0.0000000000	        0.0000000000	        0.0000000000	        0.0000000000	
        0.1582034376	      -41.7663874618	      632.9542068121	      -18.1766627076	        0.2398916421	        0.0000000000	        0.0376337801	       -0.0108502373	        0.0053526434	        0.0011319902	        0.0000000000	        0.0000000000	        0.0000000000	        0.0000000000	        0.0000000000	        0.0000000000	        0.0000000000	        0.0000000000	        0.0000000000	
        0.1695036832	      -35.2028054519	      613.6160771216	      -19.0804216281	        0.2443297758	        0.0000000000	        0.0376057392	       -0.0092459826	        0.0043643647	        0.0010035305	        0.0000000000	        0.0000000000	        0.0000000000	        0.0000000000	        0.0000000000	        0.0000000000	        0.0000000000	        0.0000000000	        0.0000000000	
        0.1808039287	      -29.6361068550	      598.9034706686	      -19.6535218147	        0.2489066831	        0.0000000000	        0.0375888358	       -0.0105924992	        0.0048107753	        0.0011896725	        0.0000000000	        0.0000000000	        0.0000000000	        0.0000000000	        0.0000000000	        0.0000000000	        0.0000000000	        0.0000000000	        0.0000000000	
        0.1921041743	      -25.1937642441	      588.6233616177	      -19.9046733509	        0.2537924963	        0.0000000000	        0.0375545066	       -0.0158338819	        0.0069516775	        0.0018280971	        0.0000000000	        0.0000000000	        0.0000000000	        0.0000000000	        0.0000000000	        0.0000000000	        0.0000000000	        0.0000000000	        0.0000000000	
        0.2034044198	      -21.8941615712	      582.4819027374	      -19.8844256761	        0.2591017265	        0.0000000000	        0.0374731450	       -0.0289662210	        0.0123465375	        0.0034119410	        0.0000000000	        0.0000000000	        0.0000000000	        0.0000000000	        0.0000000000	        0.0000000000	        0.0000000000	        0.0000000000	        0.0000000000	
        0.2147046654	      -19.9776028078	      579.6382488311	      -19.5952933119	        0.2647129577	        0.0000000000	        0.0373335779	       -0.0598374148	        0.0248591976	        0.0071392373	        0.0000000000	        0.0000000000	        0.0000000000	        0.0000000000	        0.0000000000	        0.0000000000	        0.0000000000	        0.0000000000	        0.0000000000	
        0.2260049109	      -18.4650422512	      578.9660046037	      -18.8044865870	        0.2704527687	        0.0000000000	        0.0371479417	       -0.1285990004	        0.0522581386	        0.0154012133	        0.0000000000	        0.0000000000	        0.0000000000	        0.0000000000	        0.0000000000	        0.0000000000	        0.0000000000	        0.0000000000	        0.0000000000	
        0.2373051565	      -16.7564009363	      579.1039748906	      -17.7859061804	        0.2762683884	        0.0000000000	        0.0369216972	       -0.2670175553	        0.1064894884	        0.0317702049	        0.0000000000	        0.0000000000	        0.0000000000	        0.0000000000	        0.0000000000	        0.0000000000	        0.0000000000	        0.0000000000	        0.0000000000	
        0.2486054020	      -15.0198872344	      579.1226451116	      -16.7924344301	        0.2821053472	        0.0000000000	        0.0366619804	       -0.5035204669	        0.1977426958	        0.0589767779	        0.0000000000	        0.0000000000	        0.0000000000	        0.0000000000	        0.0000000000	        0.0000000000	        0.0000000000	        0.0000000000	        0.0000000000	
        0.2599056476	      -13.1155775947	      578.2266763735	      -15.9717832118	        0.2878879036	        0.0000000000	        0.0363818175	       -0.8314192989	        0.3225198450	        0.0952475467	        0.0000000000	        0.0000000000	        0.0000000000	        0.0000000000	        0.0000000000	        0.0000000000	        0.0000000000	        0.0000000000	        0.0000000000	
        0.2712058931	      -10.8592989729	      575.9632553586	      -15.1228893127	        0.2936147583	        0.0000000000	        0.0360932933	       -1.1875464175	        0.4562889378	        0.1324157036	        0.0000000000	        0.0000000000	        0.0000000000	        0.0000000000	        0.0000000000	        0.0000000000	        0.0000000000	        0.0000000000	        0.0000000000	
        0.2825061386	       -7.9538283806	      571.9377730018	      -14.3540684961	        0.2992619296	        0.0000000000	        0.0358016608	       -1.4775390940	        0.5636218030	        0.1590912724	        0.0000000000	        0.0000000000	        0.0000000000	        0.0000000000	        0.0000000000	        0.0000000000	        0.0000000000	        0.0000000000	        0.0000000000	
        0.2938063842	       -3.9195346773	      566.3259999966	      -13.2238433715	        0.3049003246	        0.0000000000	        0.0355082718	       -1.6338741489	        0.6198332969	        0.1676558281	        0.0000000000	        0.0000000000	        0.0000000000	        0.0000000000	        0.0000000000	        0.0000000000	        0.0000000000	        0.0000000000	        0.0000000000	
        0.3051066297	        0.6463947136	      559.6722672449	      -11.4963167109	        0.3105372864	        0.0000000000	        0.0352080718	       -1.6395185676	        0.6192025659	        0.1569176576	        0.0000000000	        0.0000000000	        0.0000000000	        0.0000000000	        0.0000000000	        0.0000000000	        0.0000000000	        0.0000000000	        0.0000000000	
        0.3164068753	        4.6835240509	      553.8552526046	       -9.5378779940	        0.3162399683	        0.0000000000	        0.0348846182	       -1.5143633359	        0.5697776855	        0.1313701775	        0.0000000000	        0.0000000000	        0.0000000000	        0.0000000000	        0.0000000000	        0.0000000000	        0.0000000000	        0.0000000000	        0.0000000000	
        0.3277071208	        8.2746104885	      549.3437477367	       -7.3039207128	        0.3218248531	        0.0000000000	        0.0345555269	       -1.2825220331	        0.4810162899	        0.0972078845	        0.0000000000	        0.0000000000	        0.0000000000	        0.0000000000	        0.0000000000	        0.0000000000	        0.0000000000	        0.0000000000	        0.0000000000	
